<svg xmlns="http://www.w3.org/2000/svg" xmlns:xlink="http://www.w3.org/1999/xlink" xmlns:lucid="lucid" width="1290.23" height="742.15"><g transform="translate(-360 -240)" lucid:page-tab-id="0_0"><path d="M0 0h1870.87v1322.83H0z" fill="#fff"/><path d="M864.8 531.1l-26.37-45.3c-2.05-3.64-5.63-5.7-9.86-5.8H776.1c-4.23.1-7.8 2.16-9.86 5.8l-26.37 45.18c-2.05 3.53-2.05 7.62 0 11.26l26.37 45.52c2.05 3.75 5.5 5.92 9.85 6.03h52.47c4.23-.12 7.8-2.3 9.86-6.04l26.37-45.18c2.05-3.75 2.05-7.85 0-11.5z" stroke="#000" stroke-opacity="0" fill="#4285f4"/><path d="M839.55 534.9l-.65-.2-34.92-34.54-7.17 10.4 6.06 5.9-15.27 5.5-5.97 15-5.87-5.8-10.52 9.16 53.92 53.45h9.4c4.3-.2 7.83-2.34 9.88-6l19.92-34.25z" stroke="#000" stroke-opacity="0" fill-opacity=".07"/><path d="M802.33 514.13c-12.7 0-22.98 10.2-22.98 22.75 0 12.56 10.3 22.75 22.98 22.75s22.98-10.2 22.98-22.75c0-12.56-10.3-22.75-22.97-22.75m0 40.1c-9.65 0-17.47-7.75-17.47-17.3-.04-9.56 7.82-17.3 17.47-17.3 9.6 0 17.46 7.7 17.46 17.25 0 9.56-7.82 17.3-17.47 17.3M838.44 534.18l-9.6-2.97c.43 1.98.62 3.67.62 5.68 0 1.4-.1 2.6-.3 4h9.3c.8-.12 1.37-.75 1.42-1.55v-3.6c-.05-.78-.63-1.42-1.43-1.54M802.32 510.02c2 0 3.68.18 5.63.6l-3.44-9.48c-.1-.8-.76-1.37-1.57-1.4h-1.45c-.8.03-1.45.6-1.58 1.4l-3 9.42c1.9-.37 3.5-.53 5.4-.53M775.2 536.88c0-2 .18-3.7.6-5.7l-9.6 2.98c-.8.12-1.38.77-1.42 1.56v3.6c.04.8.63 1.42 1.43 1.55h9.3c-.2-1.4-.3-2.6-.3-4" stroke="#000" stroke-opacity="0" fill="#fff"/><path d="M810.54 529.44l-2.2 2.15c-3.18-2.75-7.84-2.75-10.98 0-3.44 3.03-3.75 8.22-.72 11.6l-2.18 2.16c4.45 4.4 11.66 4.4 16.08 0 4.45-4.38 4.45-11.52 0-15.92m-4.48 11.13c-2.06 2.04-5.4 2.04-7.46 0-2.08-2.04-2.08-5.34-.02-7.38 2.06-2.05 5.4-2.05 7.48 0 2.06 2 2.07 5.28.04 7.3 0 .03-.02.05-.04.07" stroke="#000" stroke-opacity="0" fill="#fff"/><use xlink:href="#a" transform="matrix(1,0,0,1,738.3333333333334,598.79) translate(6.623456790123456 17.77777777777778)"/><use xlink:href="#b" transform="matrix(1,0,0,1,738.3333333333334,598.79) translate(52.30246913580247 17.77777777777778)"/><use xlink:href="#c" transform="matrix(1,0,0,1,738.3333333333334,598.79) translate(39.339506172839506 44.44444444444444)"/><use xlink:href="#d" transform="matrix(1,0,0,1,738.3333333333334,598.79) translate(52.858024691358025 44.44444444444444)"/><path d="M423.47 485.38l25.4 19.72v5.33c0 13.93-11.38 25.25-25.4 25.25-14 0-25.4-11.32-25.4-25.25v-5.33zM437.94 542.7c16.1 0 29.06 9.67 29.06 25.43V600h-16.7v-22.36h-2.88V600H400.1v-22.36h-2.87V600H380v-31.87c0-15.76 12.96-25.44 29.06-25.44z" fill="#7d7c7c"/><path d="M423.45 480c13.9.1 25.1 11.43 25 25.26-.1 13.83-11.5 24.95-25.4 24.85-13.8-.1-24.95-11.2-25-25 0-13.87 11.4-25.1 25.35-25.1h.05zM437.94 537.36c16.1 0 29.06 9.68 29.06 25.44v31.86h-16.7v-22.4h-2.88v22.4H400.1v-22.4h-2.87v22.4H380V562.8c0-15.76 12.96-25.44 29.06-25.44z" fill="#d2d3d3"/><use xlink:href="#e" transform="matrix(1,0,0,1,380,600) translate(21.925925925925927 17.77777777777778)"/><path d="M566.32 543.78h-108.8v-2h108.8zm155.36 0h-91.3v-2h91.3z" fill="#5e5e5e"/><path fill="#5e5e5e"/><path d="M736.94 542.78l-14.26 4.64v-9.27z" fill="#5e5e5e"/><path d="M740.18 542.78l-18.5 6v-12zm-16.5 3.26l10.03-3.26-10.02-3.26z" fill="#5e5e5e"/><use xlink:href="#f" transform="matrix(1,0,0,1,566.320117497335,532.1146990578803) translate(0 14.222222222222223)"/><path d="M866.32 313.3v5.47c0 9.94-10.92 20.22-24.23 20.22h-71.52c-13.32 0-24.23-10.3-24.23-20.23v-5.48z" fill="#7d7c7c"/><path d="M792.53 260c12.36 0 22.8 6.8 27.96 18.07 7.07-4.85 16.78-3.06 21.58 4.1 1.8 2.55 2.64 5.16 2.76 8.22 12.12 1.04 21.48 12.76 21.48 22.1v2.02c0 10-10.92 20.16-24.24 20.16h-71.5c-13.33 0-24.25-10.16-24.25-20.16v-2.02c0-7.77 6.48-18.37 15.48-21v-.88c.13-16.95 13.8-30.7 30.73-30.62z" fill="#d2d3d3"/><path d="M779.96 309.25h13.63v18.98h-13.64v-18.98z" fill="#fff"/><path d="M769.78 314.25l17-29.63 17 29.63h-34zM813.97 284.48h13.63v19h-13.63v-19z" fill="#fff"/><path d="M837.77 298.47l-17 29.62-17-29.63h34z" fill="#fff"/><use xlink:href="#g" transform="matrix(1,0,0,1,746.3333333333334,339) translate(8.827160493827165 17.77777777777778)"/><use xlink:href="#d" transform="matrix(1,0,0,1,746.3333333333334,339) translate(75.37037037037037 17.77777777777778)"/><path d="M806 479h-2v-58.17h2zm1.33-79.5h-2v-42h2z" fill="#5e5e5e"/><path d="M806 480h-2v-1.03h2zM810.97 356.5h-9.27l4.63-14.27z" fill="#5e5e5e"/><path d="M812.35 357.5h-12.03l6-18.5zm-9.28-2h6.52l-3.27-10.04z" fill="#5e5e5e"/><use xlink:href="#h" transform="matrix(1,0,0,1,753.6172839506173,399.49605) translate(0 14.222222222222223)"/><use xlink:href="#i" transform="matrix(1,0,0,1,753.6172839506173,399.49605) translate(68.98765432098767 14.222222222222223)"/><path d="M867.3 536.9h215.24" stroke="#5e5e5e" stroke-width="2" fill="none"/><path d="M867.32 537.9h-1.14l.15-1.37-.1-.63h1.1z" fill="#5e5e5e"/><path d="M1097.8 536.9l-14.26 4.63v-9.27z" stroke="#5e5e5e" stroke-width="2" fill="#5e5e5e"/><use xlink:href="#j" transform="matrix(1,0,0,1,898.3840980075521,540.895) translate(0 14.222222222222223)"/><use xlink:href="#k" transform="matrix(1,0,0,1,898.3840980075521,540.895) translate(44.44444444444445 14.222222222222223)"/><use xlink:href="#l" transform="matrix(1,0,0,1,898.3840980075521,540.895) translate(134.12345679012347 14.222222222222223)"/><path d="M1207.46 811.1l-26.36-45.3c-2.05-3.64-5.64-5.7-9.86-5.8h-52.48c-4.22.1-7.8 2.16-9.86 5.8l-26.36 45.18c-2.05 3.53-2.05 7.62 0 11.26l26.36 45.52c2.05 3.75 5.5 5.92 9.86 6.03h52.48c4.22-.12 7.8-2.3 9.86-6.04l26.36-45.18c2.05-3.75 2.05-7.85 0-11.5z" stroke="#000" stroke-opacity="0" fill="#4285f4"/><path d="M1175.03 802.3l-3.7 3.7.75 23.37-3.45 4.9-1.93-2h1.76v-8.03l-8.83-8.74-6.3 3.14.16.7-22.47-22.24-10.77 5.36-1.35 10.97 3.72 20 5.46 5.3-2.35 3.67 31.7 31.36h13.8c4.3-.15 7.83-2.3 9.94-5.98l21.87-37.72z" stroke="#000" stroke-opacity="0" fill-opacity=".07"/><path d="M1125.6 842.16l5.3-5.2-7.93-7.9V804.7l7.92-7.9-5.3-5.2-10.58 10.46v29.64l10.58 10.46z" stroke="#000" stroke-opacity="0" fill="#fff"/><path d="M1137.53 816.88c0 2.05-1.68 3.7-3.75 3.7-2.07 0-3.74-1.65-3.74-3.7 0-2.05 1.67-3.7 3.74-3.7 2.07 0 3.75 1.65 3.75 3.7zM1148.74 816.88c0 2.05-1.68 3.7-3.75 3.7-2.07 0-3.75-1.65-3.75-3.7 0-2.05 1.68-3.7 3.74-3.7 2.06 0 3.74 1.65 3.74 3.7zM1159.95 816.88c0 2.05-1.68 3.7-3.74 3.7-2.06 0-3.74-1.65-3.74-3.7 0-2.05 1.68-3.7 3.75-3.7 2.07 0 3.75 1.65 3.75 3.7z" stroke="#000" stroke-opacity="0" fill="#fff"/><path d="M1164.34 791.6l-5.3 5.2 7.93 7.9v24.37l-7.92 7.9 5.3 5.2 10.57-10.47v-29.64l-10.58-10.46z" stroke="#000" stroke-opacity="0" fill="#fff"/><use xlink:href="#m" transform="matrix(1,0,0,1,1081,878.79) translate(35.04938271604939 17.77777777777778)"/><use xlink:href="#n" transform="matrix(1,0,0,1,1081,878.79) translate(9.154320987654316 44.44444444444444)"/><use xlink:href="#o" transform="matrix(1,0,0,1,1081,878.79) translate(111.5 44.44444444444444)"/><use xlink:href="#p" transform="matrix(1,0,0,1,1081,878.79) translate(-37.080246913580226 71.11111111111111)"/><path d="M1312 724.13l-.92 3.42-2.53 2.53-3.42.92h-154l-2.64.7-1.8 1.8-.7 2.63v5.37h-2v-5.63l.92-3.42 2.53-2.53 3.42-.92h154l2.64-.7 1.8-1.8.7-2.63v-52.55h2zm-3.45-187.3l2.53 2.52.92 3.4V650h-2V543.03l-.7-2.64-1.8-1.8-2.63-.7h-74.9v-2h75.16z" fill="#5e5e5e"/><path d="M1229.98 537.9h-1.13l.15-1.37-.1-.63h1.08zM1145 756.76l-4.64-14.26h9.28z" fill="#5e5e5e"/><path d="M1145 760l-6-18.5h12zm-3.26-16.5l3.26 10.03 3.26-10.03z" fill="#5e5e5e"/><use xlink:href="#q" transform="matrix(1,0,0,1,1282.9259259259259,649.9825888383576) translate(0 14.222222222222223)"/><path d="M593.46 817.12l-26.36-45.3c-2.05-3.63-5.64-5.68-9.86-5.8h-52.48c-4.22.12-7.8 2.17-9.86 5.8l-26.36 45.2c-2.05 3.5-2.05 7.6 0 11.25l26.36 45.52c2.05 3.74 5.5 5.9 9.86 6.02h52.48c4.22-.12 7.8-2.28 9.86-6.03l26.36-45.2c2.05-3.74 2.05-7.84 0-11.48z" stroke="#000" stroke-opacity="0" fill="#4285f4"/><path d="M567.1 873.76l17.55-30.12-37.02-36.68-16.65-4.4-14.87 5.48-5.8 14.83 4.62 16.6 40.74 40.32h1.63c4.23-.17 7.8-2.33 9.8-6.04z" stroke="#000" stroke-opacity="0" fill-opacity=".07"/><path d="M531 799.96c-12.8 0-23.18 10.27-23.18 22.94 0 12.66 10.38 22.94 23.17 22.94 12.8 0 23.17-10.28 23.17-22.94 0-12.67-10.38-22.94-23.18-22.94m0 40.37c-9.74 0-17.57-7.8-17.57-17.43 0-9.6 7.83-17.4 17.56-17.4 9.73 0 17.56 7.8 17.56 17.4 0 9.63-7.83 17.43-17.57 17.43" stroke="#000" stroke-opacity="0" fill="#fff"/><path d="M520 822.02v7.13c1.12 1.9 2.48 3.3 4.38 4.43v-11.56zM528.67 815.98v19.23c1.5.3 2.85.3 4.37 0V816zM537.76 824.98v8.47c1.92-1.2 3.3-2.64 4.38-4.6v-3.87zM547.67 837.04l-2.4 2.4c-.42.4-.42 1.08 0 1.5l9.1 9.02c.43.42 1.1.42 1.55 0l2.4-2.4c.42-.4.42-1.07 0-1.5l-9.12-9.02c-.43-.42-1.1-.42-1.53 0" stroke="#000" stroke-opacity="0" fill="#fff"/><use xlink:href="#r" transform="matrix(1,0,0,1,467,884.817225327917) translate(17.76543209876543 17.77777777777778)"/><path d="M901.5 823.92h-24.54v-2h24.53zm180.43 0h-12.88v-2h12.88z" fill="#5e5e5e"/><path d="M1082.54 822.24l.97 1.68h-1.6v-2h.5zM875.96 827.56l-14.27-4.64 14.26-4.63z" fill="#5e5e5e"/><path d="M876.96 828.93l-18.5-6 18.5-6.02zm-12.03-6l10.03 3.25v-6.52z" fill="#5e5e5e"/><use xlink:href="#j" transform="matrix(1,0,0,1,901.49250943713,812.2555586612503) translate(0 14.222222222222223)"/><use xlink:href="#s" transform="matrix(1,0,0,1,901.49250943713,812.2555586612503) translate(44.44444444444445 14.222222222222223)"/><use xlink:href="#l" transform="matrix(1,0,0,1,901.49250943713,812.2555586612503) translate(131.11111111111111 14.222222222222223)"/><path d="M1262.5 817.9h-52.54v-2h52.55zm160.04 0h-108.72v-2h108.72z" fill="#5e5e5e"/><path d="M1209.98 817.9h-1.13l.15-1.37-.1-.63h1.08zM1437.8 816.9l-14.26 4.63v-9.27z" fill="#5e5e5e"/><path d="M1441.05 816.9l-18.5 6V810.9zm-16.5 3.25l10.02-3.25-10.03-3.26z" fill="#5e5e5e"/><use xlink:href="#t" transform="matrix(1,0,0,1,1262.5113130420427,806.2283333333334) translate(0 14.222222222222223)"/><path d="M1567.46 811.1l-26.36-45.3c-2.05-3.64-5.64-5.7-9.86-5.8h-52.48c-4.22.1-7.8 2.16-9.86 5.8l-26.36 45.18c-2.05 3.53-2.05 7.62 0 11.26l26.36 45.52c2.05 3.75 5.5 5.92 9.86 6.03h52.48c4.22-.12 7.8-2.3 9.86-6.04l26.36-45.18c2.05-3.75 2.05-7.85 0-11.5z" stroke="#000" stroke-opacity="0" fill="#4285f4"/><path d="M1526.5 803.58l-36.17 3.3-7 6.94 6 5.9-5.93 10.3 44.15 43.74h3.73c4.27-.14 7.77-2.32 9.82-5.97l18.35-31.6z" stroke="#000" stroke-opacity="0" fill-opacity=".07"/><path d="M1525.66 803.3h-41.42c-.66 0-1.23.53-1.23 1.2v8.47c0 .67.54 1.2 1.24 1.2h41.42c.7 0 1.23-.53 1.23-1.2v-8.48c0-.67-.54-1.2-1.24-1.2m-6.4 7.9c-1.37 0-2.46-1.1-2.46-2.44 0-1.35 1.1-2.45 2.45-2.45 1.4 0 2.5 1.1 2.5 2.46 0 1.35-1.1 2.45-2.5 2.45M1525.66 819.6h-41.46c-.66 0-1.2.57-1.2 1.23v8.48c0 .68.54 1.2 1.24 1.2h41.42c.7 0 1.23-.52 1.23-1.2v-8.5c0-.67-.54-1.2-1.24-1.2m-6.4 7.9c-1.37 0-2.46-1.1-2.46-2.45s1.1-2.46 2.45-2.46c1.4 0 2.5 1.1 2.5 2.45 0 1.36-1.1 2.46-2.5 2.46" stroke="#000" stroke-opacity="0" fill="#fff"/><use xlink:href="#m" transform="matrix(1,0,0,1,1441,878.79) translate(35.04938271604939 17.77777777777778)"/><use xlink:href="#u" transform="matrix(1,0,0,1,1441,878.79) translate(18.382716049382715 44.44444444444444)"/><use xlink:href="#o" transform="matrix(1,0,0,1,1441,878.79) translate(102.2716049382716 44.44444444444444)"/><use xlink:href="#v" transform="matrix(1,0,0,1,1441,878.79) translate(-59.7654320987654 71.11111111111111)"/><path d="M1227.46 531.1l-26.36-45.3c-2.05-3.64-5.64-5.7-9.86-5.8h-52.48c-4.22.1-7.8 2.16-9.86 5.8l-26.36 45.18c-2.05 3.53-2.05 7.62 0 11.26l26.36 45.52c2.05 3.75 5.5 5.92 9.86 6.03h52.48c4.22-.12 7.8-2.3 9.86-6.04l26.36-45.18c2.05-3.75 2.05-7.85 0-11.5z" stroke="#000" stroke-opacity="0" fill="#4285f4"/><path d="M1190.2 520.78l-5.82 1.3-14.62-14.48-4.65 8.62-2.57 10 4.32 4.2-8.22 1.74-11.3-11.2-7.72 7.23 14.13 13.95-14.96 11.8 40.2 39.8h12.3c4.24-.16 7.8-2.32 9.9-6.02l20.67-35.6z" stroke="#000" stroke-opacity="0" fill-opacity=".07"/><path d="M1183.84 520.06c2.55-1.45 5.8-.58 7.26 1.93 1.47 2.52.6 5.73-1.95 7.18-2.54 1.45-5.8.6-7.26-1.93-1.48-2.5-.6-5.73 1.94-7.2M1140.83 529.15c-2.54-1.46-3.4-4.68-1.94-7.2 1.45-2.5 4.7-3.37 7.25-1.92 2.54 1.45 3.4 4.67 1.95 7.2-1.47 2.5-4.7 3.37-7.27 1.92M1170.3 561.46c0 2.9-2.38 5.27-5.32 5.26-2.93-.02-5.3-2.37-5.3-5.28 0-2.9 2.38-5.25 5.3-5.25 2.95 0 5.33 2.35 5.33 5.25M1165 525.94c.86 0 1.6.08 2.45.28V512.3h-4.9v13.92c.84-.2 1.57-.28 2.44-.28zM1175.56 540.1c-.53 1.65-1.3 2.95-2.47 4.2l12.17 6.93 2.46-4.2zM1154.43 540.1l-12.17 6.93 2.46 4.2 12.18-6.9c-1.2-1.27-1.95-2.58-2.47-4.22zM1173.6 536.88c0 4.7-3.86 8.5-8.6 8.5-4.75 0-8.6-3.8-8.6-8.5s3.85-8.5 8.6-8.5c4.74 0 8.6 3.8 8.6 8.5" stroke="#000" stroke-opacity="0" fill="#fff"/><path d="M1140.12 543.38c3.23-1.85 7.35-.75 9.23 2.44 1.86 3.2.75 7.28-2.48 9.14-3.23 1.85-7.35.75-9.22-2.45-1.87-3.2-.76-7.28 2.47-9.12M1183.12 554.96c-3.23-1.85-4.34-5.94-2.47-9.14 1.86-3.2 6-4.3 9.22-2.45 3.23 1.85 4.34 5.94 2.48 9.14-1.87 3.2-6 4.3-9.22 2.46M1171.75 512.3c0 3.7-3.03 6.7-6.76 6.7s-6.76-3-6.76-6.7 3.03-6.7 6.75-6.7 6.75 3 6.75 6.7" stroke="#000" stroke-opacity="0" fill="#fff"/><use xlink:href="#m" transform="matrix(1,0,0,1,1101,598.79) translate(35.04938271604939 17.77777777777778)"/><use xlink:href="#w" transform="matrix(1,0,0,1,1101,598.79) translate(14.648148148148145 44.44444444444444)"/><use xlink:href="#o" transform="matrix(1,0,0,1,1101,598.79) translate(106.00617283950618 44.44444444444444)"/><use xlink:href="#x" transform="matrix(1,0,0,1,1101,598.79) translate(-27.172839506172835 71.11111111111111)"/><path d="M1507.46 391.1l-26.36-45.3c-2.05-3.64-5.64-5.7-9.86-5.8h-52.48c-4.22.1-7.8 2.16-9.86 5.8l-26.36 45.18c-2.05 3.53-2.05 7.62 0 11.26l26.36 45.52c2.05 3.75 5.5 5.92 9.86 6.03h52.48c4.22-.12 7.8-2.3 9.86-6.04l26.36-45.18c2.05-3.75 2.05-7.85 0-11.5z" stroke="#000" stroke-opacity="0" fill="#4285f4"/><path d="M1466.5 383.58l-36.17 3.3-7 6.94 6 5.9-5.93 10.3 44.15 43.74h3.73c4.27-.14 7.77-2.32 9.82-5.97l18.35-31.6z" stroke="#000" stroke-opacity="0" fill-opacity=".07"/><path d="M1465.66 383.3h-41.42c-.66 0-1.23.53-1.23 1.2v8.47c0 .67.54 1.2 1.24 1.2h41.42c.7 0 1.23-.53 1.23-1.2v-8.48c0-.67-.54-1.2-1.24-1.2m-6.4 7.9c-1.37 0-2.46-1.1-2.46-2.44 0-1.35 1.1-2.45 2.45-2.45 1.4 0 2.5 1.1 2.5 2.46 0 1.35-1.1 2.45-2.5 2.45M1465.66 399.6h-41.46c-.66 0-1.2.57-1.2 1.23v8.48c0 .68.54 1.2 1.24 1.2h41.42c.7 0 1.23-.52 1.23-1.2v-8.5c0-.67-.54-1.2-1.24-1.2m-6.4 7.9c-1.37 0-2.46-1.1-2.46-2.45s1.1-2.46 2.45-2.46c1.4 0 2.5 1.1 2.5 2.45 0 1.36-1.1 2.46-2.5 2.46" stroke="#000" stroke-opacity="0" fill="#fff"/><use xlink:href="#m" transform="matrix(1,0,0,1,1381,458.79) translate(35.04938271604939 17.77777777777778)"/><use xlink:href="#u" transform="matrix(1,0,0,1,1381,458.79) translate(18.382716049382715 44.44444444444444)"/><use xlink:href="#o" transform="matrix(1,0,0,1,1381,458.79) translate(102.2716049382716 44.44444444444444)"/><use xlink:href="#x" transform="matrix(1,0,0,1,1381,458.79) translate(-27.172839506172835 71.11111111111111)"/><path d="M1223.93 397.9h-48.8l-2.64.7-1.8 1.8-.7 2.63V479h-2v-76.24l.92-3.4 2.53-2.54 3.42-.93h49.06zm138.6 0h-82.46v-2h82.47z" fill="#5e5e5e"/><path d="M1170 480h-2v-1.03h2zM1377.8 396.9l-14.26 4.63v-9.27z" fill="#5e5e5e"/><path d="M1381.05 396.9l-18.5 6V390.9zm-16.5 3.25l10.02-3.25-10.03-3.26z" fill="#5e5e5e"/><use xlink:href="#q" transform="matrix(1,0,0,1,1223.9259259259259,386.22833333333335) translate(0 14.222222222222223)"/><path d="M856.96 817.12l-26.36-45.3c-2.05-3.63-5.64-5.68-9.86-5.8h-52.48c-4.22.12-7.8 2.17-9.86 5.8l-26.36 45.2c-2.05 3.5-2.05 7.6 0 11.25l26.36 45.52c2.05 3.74 5.5 5.9 9.86 6.02h52.48c4.22-.12 7.8-2.28 9.86-6.03l26.36-45.2c2.05-3.74 2.05-7.84 0-11.48z" stroke="#000" stroke-opacity="0" fill="#4285f4"/><path d="M816 809.6l-36.17 3.3-7 6.95 6 5.9-5.93 10.3 44.15 43.74h3.73c4.27-.15 7.77-2.33 9.82-5.98l18.35-31.58z" stroke="#000" stroke-opacity="0" fill-opacity=".07"/><path d="M815.16 809.32h-41.42c-.66 0-1.23.54-1.23 1.2V819c0 .66.54 1.2 1.24 1.2h41.42c.7 0 1.23-.54 1.23-1.2v-8.48c0-.66-.54-1.18-1.24-1.2m-6.4 7.92c-1.37 0-2.46-1.1-2.46-2.46 0-1.35 1.1-2.44 2.45-2.44 1.4 0 2.5 1.1 2.5 2.44 0 1.36-1.1 2.46-2.5 2.46M815.16 825.62H773.7c-.66.02-1.2.58-1.2 1.24v8.48c0 .66.54 1.2 1.24 1.2h41.42c.7 0 1.23-.54 1.23-1.2v-8.52c0-.67-.54-1.2-1.24-1.2m-6.4 7.92c-1.37 0-2.46-1.1-2.46-2.46 0-1.36 1.1-2.46 2.45-2.46 1.4 0 2.5 1.1 2.5 2.46 0 1.35-1.1 2.46-2.5 2.46" stroke="#000" stroke-opacity="0" fill="#fff"/><use xlink:href="#m" transform="matrix(1,0,0,1,730.5,884.817225327917) translate(35.04938271604939 17.77777777777778)"/><use xlink:href="#u" transform="matrix(1,0,0,1,730.5,884.817225327917) translate(18.382716049382715 44.44444444444444)"/><use xlink:href="#o" transform="matrix(1,0,0,1,730.5,884.817225327917) translate(102.2716049382716 44.44444444444444)"/><use xlink:href="#y" transform="matrix(1,0,0,1,730.5,884.817225327917) translate(-43.253086419753075 71.11111111111111)"/><path d="M644 823.92h-48.04v-2H644zm68.04 0H681.5v-2h30.54z" fill="#5e5e5e"/><path d="M595.98 823.92h-1.13l.15-1.37-.1-.63h1.08zM727.3 822.92l-14.26 4.64v-9.27z" fill="#5e5e5e"/><path d="M730.55 822.92l-18.5 6v-12zm-16.5 3.26l10.02-3.26-10.03-3.26z" fill="#5e5e5e"/><g><use xlink:href="#z" transform="matrix(1,0,0,1,644.0106412174285,812.2555586612503) translate(0 14.222222222222223)"/></g><path d="M579.25 486c0-3.3 2.7-6 6-6h34.83c3.32 0 6 2.7 6 6v21.8c0 3.3-2.68 6-6 6h-34.83c-3.3 0-6-2.7-6-6z" stroke="#000" stroke-opacity="0" stroke-width="3" fill="#fff" fill-opacity="0"/><g><use xlink:href="#A" transform="matrix(1,0,0,1,584.25,485) translate(12.327160493827162 19.27777777777778)"/></g><path d="M691.5 406c0-3.3 2.7-6 6-6h34.83c3.32 0 6 2.7 6 6v21.8c0 3.3-2.68 6-6 6H697.5c-3.3 0-6-2.7-6-6z" stroke="#000" stroke-opacity="0" stroke-width="3" fill="#fff" fill-opacity="0"/><g><use xlink:href="#B" transform="matrix(1,0,0,1,696.5000000000001,405) translate(12.327160493827162 19.27777777777778)"/></g><path d="M960.25 486c0-3.3 2.7-6 6-6h34.83c3.32 0 6 2.7 6 6v21.8c0 3.3-2.68 6-6 6h-34.83c-3.3 0-6-2.7-6-6z" stroke="#000" stroke-opacity="0" stroke-width="3" fill="#fff" fill-opacity="0"/><g><use xlink:href="#C" transform="matrix(1,0,0,1,965.25,485) translate(12.327160493827162 19.27777777777778)"/></g><path d="M1322.92 599.8c0-3.32 2.68-6 6-6h34.83c3.3 0 6 2.68 6 6v21.78c0 3.3-2.7 6-6 6h-34.83c-3.32 0-6-2.7-6-6z" stroke="#000" stroke-opacity="0" stroke-width="3" fill="#fff" fill-opacity="0"/><g><use xlink:href="#D" transform="matrix(1,0,0,1,1327.9166666666667,598.79) translate(12.327160493827162 19.27777777777778)"/></g><path d="M1229 346c0-3.3 2.7-6 6-6h34.83c3.32 0 6 2.7 6 6v21.8c0 3.3-2.68 6-6 6H1235c-3.3 0-6-2.7-6-6z" stroke="#000" stroke-opacity="0" stroke-width="3" fill="#fff" fill-opacity="0"/><g><use xlink:href="#E" transform="matrix(1,0,0,1,1234,345) translate(12.327160493827162 19.27777777777778)"/></g><path d="M960.25 766c0-3.3 2.7-6 6-6h34.83c3.32 0 6 2.7 6 6v21.8c0 3.3-2.68 6-6 6h-34.83c-3.3 0-6-2.7-6-6z" stroke="#000" stroke-opacity="0" stroke-width="3" fill="#fff" fill-opacity="0"/><g><use xlink:href="#F" transform="matrix(1,0,0,1,965.25,765) translate(12.327160493827162 19.27777777777778)"/></g><path d="M1260 766c0-3.3 2.7-6 6-6h34.83c3.32 0 6 2.7 6 6v21.8c0 3.3-2.68 6-6 6H1266c-3.3 0-6-2.7-6-6z" stroke="#000" stroke-opacity="0" stroke-width="3" fill="#fff" fill-opacity="0"/><g><use xlink:href="#G" transform="matrix(1,0,0,1,1265,765) translate(12.327160493827162 19.27777777777778)"/></g><path d="M639.33 766c0-3.3 2.7-6 6-6h34.84c3.3 0 6 2.7 6 6v21.8c0 3.3-2.7 6-6 6h-34.84c-3.3 0-6-2.7-6-6z" stroke="#000" stroke-opacity="0" stroke-width="3" fill="#fff" fill-opacity="0"/><g><use xlink:href="#H" transform="matrix(1,0,0,1,644.3333333333334,765) translate(12.327160493827162 19.27777777777778)"/></g><defs><path fill="#333" d="M205 0l-28-72H64L36 0H1l101-248h38L239 0h-34zm-38-99l-47-123c-12 45-31 82-46 123h93" id="I"/><path fill="#333" d="M115-194c55 1 70 41 70 98S169 2 115 4C84 4 66-9 55-30l1 105H24l-1-265h31l2 30c10-21 28-34 59-34zm-8 174c40 0 45-34 45-75s-6-73-45-74c-42 0-51 32-51 76 0 43 10 73 51 73" id="J"/><g id="a"><use transform="matrix(0.06172839506172839,0,0,0.06172839506172839,0,0)" xlink:href="#I"/><use transform="matrix(0.06172839506172839,0,0,0.06172839506172839,14.814814814814813,0)" xlink:href="#J"/><use transform="matrix(0.06172839506172839,0,0,0.06172839506172839,27.160493827160494,0)" xlink:href="#J"/></g><path fill="#333" d="M30 0v-248h187v28H63v79h144v27H63v87h162V0H30" id="K"/><path fill="#333" d="M117-194c89-4 53 116 60 194h-32v-121c0-31-8-49-39-48C34-167 62-67 57 0H25l-1-190h30c1 10-1 24 2 32 11-22 29-35 61-36" id="L"/><path fill="#333" d="M177-190C167-65 218 103 67 71c-23-6-38-20-44-43l32-5c15 47 100 32 89-28v-30C133-14 115 1 83 1 29 1 15-40 15-95c0-56 16-97 71-98 29-1 48 16 59 35 1-10 0-23 2-32h30zM94-22c36 0 50-32 50-73 0-42-14-75-50-75-39 0-46 34-46 75s6 73 46 73" id="M"/><path fill="#333" d="M24-231v-30h32v30H24zM24 0v-190h32V0H24" id="N"/><path fill="#333" d="M100-194c63 0 86 42 84 106H49c0 40 14 67 53 68 26 1 43-12 49-29l28 8c-11 28-37 45-77 45C44 4 14-33 15-96c1-61 26-98 85-98zm52 81c6-60-76-77-97-28-3 7-6 17-6 28h103" id="O"/><g id="b"><use transform="matrix(0.06172839506172839,0,0,0.06172839506172839,0,0)" xlink:href="#K"/><use transform="matrix(0.06172839506172839,0,0,0.06172839506172839,14.814814814814813,0)" xlink:href="#L"/><use transform="matrix(0.06172839506172839,0,0,0.06172839506172839,27.160493827160494,0)" xlink:href="#M"/><use transform="matrix(0.06172839506172839,0,0,0.06172839506172839,39.50617283950617,0)" xlink:href="#N"/><use transform="matrix(0.06172839506172839,0,0,0.06172839506172839,44.382716049382715,0)" xlink:href="#L"/><use transform="matrix(0.06172839506172839,0,0,0.06172839506172839,56.72839506172839,0)" xlink:href="#O"/></g><path fill="#333" d="M16-82v-28h88v28H16" id="P"/><use transform="matrix(0.06172839506172839,0,0,0.06172839506172839,0,0)" xlink:href="#P" id="c"/><path fill="#333" d="M30-248c87 1 191-15 191 75 0 78-77 80-158 76V0H30v-248zm33 125c57 0 124 11 124-50 0-59-68-47-124-48v98" id="Q"/><path fill="#333" d="M33 0v-248h34V0H33" id="R"/><g id="d"><use transform="matrix(0.06172839506172839,0,0,0.06172839506172839,0,0)" xlink:href="#I"/><use transform="matrix(0.06172839506172839,0,0,0.06172839506172839,14.814814814814813,0)" xlink:href="#Q"/><use transform="matrix(0.06172839506172839,0,0,0.06172839506172839,29.629629629629626,0)" xlink:href="#R"/></g><path fill="#333" d="M84 4C-5 8 30-112 23-190h32v120c0 31 7 50 39 49 72-2 45-101 50-169h31l1 190h-30c-1-10 1-25-2-33-11 22-28 36-60 37" id="S"/><path fill="#333" d="M135-143c-3-34-86-38-87 0 15 53 115 12 119 90S17 21 10-45l28-5c4 36 97 45 98 0-10-56-113-15-118-90-4-57 82-63 122-42 12 7 21 19 24 35" id="T"/><path fill="#333" d="M114-163C36-179 61-72 57 0H25l-1-190h30c1 12-1 29 2 39 6-27 23-49 58-41v29" id="U"/><g id="e"><use transform="matrix(0.06172839506172839,0,0,0.06172839506172839,0,0)" xlink:href="#S"/><use transform="matrix(0.06172839506172839,0,0,0.06172839506172839,12.345679012345679,0)" xlink:href="#T"/><use transform="matrix(0.06172839506172839,0,0,0.06172839506172839,23.45679012345679,0)" xlink:href="#O"/><use transform="matrix(0.06172839506172839,0,0,0.06172839506172839,35.80246913580247,0)" xlink:href="#U"/></g><path fill="#333" d="M135-150c-39-12-60 13-60 57V0H25l-1-190h47c2 13-1 29 3 40 6-28 27-53 61-41v41" id="V"/><path fill="#333" d="M185-48c-13 30-37 53-82 52C43 2 14-33 14-96s30-98 90-98c62 0 83 45 84 108H66c0 31 8 55 39 56 18 0 30-7 34-22zm-45-69c5-46-57-63-70-21-2 6-4 13-4 21h74" id="W"/><path fill="#333" d="M84 4C32 4 15-41 15-95c0-55 18-99 73-99 29 0 47 12 58 34l2-30h48l-1 265h-49V-32C136-9 114 4 84 4zm21-34c32 0 41-29 41-66 0-36-9-64-40-64-33 0-39 30-40 65 0 43 13 65 39 65" id="X"/><path fill="#333" d="M85 4C-2 5 27-109 22-190h50c7 57-23 150 33 157 60-5 35-97 40-157h50l1 190h-47c-2-12 1-28-3-38-12 25-28 42-61 42" id="Y"/><path fill="#333" d="M137-138c1-29-70-34-71-4 15 46 118 7 119 86 1 83-164 76-172 9l43-7c4 19 20 25 44 25 33 8 57-30 24-41C81-84 22-81 20-136c-2-80 154-74 161-7" id="Z"/><path fill="#333" d="M115-3C79 11 28 4 28-45v-112H4v-33h27l15-45h31v45h36v33H77v99c-1 23 16 31 38 25v30" id="aa"/><g id="f"><use transform="matrix(0.04938271604938272,0,0,0.04938271604938272,0,0)" xlink:href="#V"/><use transform="matrix(0.04938271604938272,0,0,0.04938271604938272,6.913580246913581,0)" xlink:href="#W"/><use transform="matrix(0.04938271604938272,0,0,0.04938271604938272,16.790123456790127,0)" xlink:href="#X"/><use transform="matrix(0.04938271604938272,0,0,0.04938271604938272,27.604938271604947,0)" xlink:href="#Y"/><use transform="matrix(0.04938271604938272,0,0,0.04938271604938272,38.41975308641976,0)" xlink:href="#W"/><use transform="matrix(0.04938271604938272,0,0,0.04938271604938272,48.296296296296305,0)" xlink:href="#Z"/><use transform="matrix(0.04938271604938272,0,0,0.04938271604938272,58.17283950617284,0)" xlink:href="#aa"/></g><path fill="#333" d="M115-194c53 0 69 39 70 98 0 66-23 100-70 100C84 3 66-7 56-30L54 0H23l1-261h32v101c10-23 28-34 59-34zm-8 174c40 0 45-34 45-75 0-40-5-75-45-74-42 0-51 32-51 76 0 43 10 73 51 73" id="ab"/><path fill="#333" d="M24 0v-261h32V0H24" id="ac"/><path fill="#333" d="M96-169c-40 0-48 33-48 73s9 75 48 75c24 0 41-14 43-38l32 2c-6 37-31 61-74 61-59 0-76-41-82-99-10-93 101-131 147-64 4 7 5 14 7 22l-32 3c-4-21-16-35-41-35" id="ad"/><g id="g"><use transform="matrix(0.06172839506172839,0,0,0.06172839506172839,0,0)" xlink:href="#Q"/><use transform="matrix(0.06172839506172839,0,0,0.06172839506172839,14.814814814814813,0)" xlink:href="#S"/><use transform="matrix(0.06172839506172839,0,0,0.06172839506172839,27.160493827160494,0)" xlink:href="#ab"/><use transform="matrix(0.06172839506172839,0,0,0.06172839506172839,39.50617283950617,0)" xlink:href="#ac"/><use transform="matrix(0.06172839506172839,0,0,0.06172839506172839,44.382716049382715,0)" xlink:href="#N"/><use transform="matrix(0.06172839506172839,0,0,0.06172839506172839,49.25925925925926,0)" xlink:href="#ad"/></g><g id="h"><use transform="matrix(0.04938271604938272,0,0,0.04938271604938272,0,0)" xlink:href="#V"/><use transform="matrix(0.04938271604938272,0,0,0.04938271604938272,6.913580246913581,0)" xlink:href="#W"/><use transform="matrix(0.04938271604938272,0,0,0.04938271604938272,16.790123456790127,0)" xlink:href="#X"/><use transform="matrix(0.04938271604938272,0,0,0.04938271604938272,27.604938271604947,0)" xlink:href="#Y"/><use transform="matrix(0.04938271604938272,0,0,0.04938271604938272,38.41975308641976,0)" xlink:href="#W"/><use transform="matrix(0.04938271604938272,0,0,0.04938271604938272,48.296296296296305,0)" xlink:href="#Z"/><use transform="matrix(0.04938271604938272,0,0,0.04938271604938272,58.17283950617284,0)" xlink:href="#aa"/></g><path fill="#333" d="M88-194c31-1 46 15 58 34l-1-101h50l1 261h-48c-2-10 0-23-3-31C134-8 116 4 84 4 32 4 16-41 15-95c0-56 19-97 73-99zm17 164c33 0 40-30 41-66 1-37-9-64-41-64s-38 30-39 65c0 43 13 65 39 65" id="ae"/><path fill="#333" d="M133-34C117-15 103 5 69 4 32 3 11-16 11-54c-1-60 55-63 116-61 1-26-3-47-28-47-18 1-26 9-28 27l-52-2c7-38 36-58 82-57s74 22 75 68l1 82c-1 14 12 18 25 15v27c-30 8-71 5-69-32zm-48 3c29 0 43-24 42-57-32 0-66-3-65 30 0 17 8 27 23 27" id="af"/><g id="i"><use transform="matrix(0.04938271604938272,0,0,0.04938271604938272,0,0)" xlink:href="#ae"/><use transform="matrix(0.04938271604938272,0,0,0.04938271604938272,10.814814814814815,0)" xlink:href="#af"/><use transform="matrix(0.04938271604938272,0,0,0.04938271604938272,20.69135802469136,0)" xlink:href="#aa"/><use transform="matrix(0.04938271604938272,0,0,0.04938271604938272,26.567901234567902,0)" xlink:href="#af"/></g><path fill="#333" d="M128 0H69L1-190h53L99-40l48-150h52" id="ag"/><g id="j"><use transform="matrix(0.04938271604938272,0,0,0.04938271604938272,0,0)" xlink:href="#Z"/><use transform="matrix(0.04938271604938272,0,0,0.04938271604938272,9.876543209876544,0)" xlink:href="#af"/><use transform="matrix(0.04938271604938272,0,0,0.04938271604938272,19.75308641975309,0)" xlink:href="#ag"/><use transform="matrix(0.04938271604938272,0,0,0.04938271604938272,29.629629629629633,0)" xlink:href="#W"/></g><g id="k"><use transform="matrix(0.04938271604938272,0,0,0.04938271604938272,0,0)" xlink:href="#V"/><use transform="matrix(0.04938271604938272,0,0,0.04938271604938272,6.913580246913581,0)" xlink:href="#W"/><use transform="matrix(0.04938271604938272,0,0,0.04938271604938272,16.790123456790127,0)" xlink:href="#X"/><use transform="matrix(0.04938271604938272,0,0,0.04938271604938272,27.604938271604947,0)" xlink:href="#Y"/><use transform="matrix(0.04938271604938272,0,0,0.04938271604938272,38.41975308641976,0)" xlink:href="#W"/><use transform="matrix(0.04938271604938272,0,0,0.04938271604938272,48.296296296296305,0)" xlink:href="#Z"/><use transform="matrix(0.04938271604938272,0,0,0.04938271604938272,58.17283950617284,0)" xlink:href="#aa"/><use transform="matrix(0.04938271604938272,0,0,0.04938271604938272,64.0493827160494,0)" xlink:href="#W"/><use transform="matrix(0.04938271604938272,0,0,0.04938271604938272,73.92592592592594,0)" xlink:href="#ae"/></g><g id="l"><use transform="matrix(0.04938271604938272,0,0,0.04938271604938272,0,0)" xlink:href="#ae"/><use transform="matrix(0.04938271604938272,0,0,0.04938271604938272,10.814814814814815,0)" xlink:href="#af"/><use transform="matrix(0.04938271604938272,0,0,0.04938271604938272,20.69135802469136,0)" xlink:href="#aa"/><use transform="matrix(0.04938271604938272,0,0,0.04938271604938272,26.567901234567902,0)" xlink:href="#af"/></g><path fill="#333" d="M212-179c-10-28-35-45-73-45-59 0-87 40-87 99 0 60 29 101 89 101 43 0 62-24 78-52l27 14C228-24 195 4 139 4 59 4 22-46 18-125c-6-104 99-153 187-111 19 9 31 26 39 46" id="ah"/><path fill="#333" d="M100-194c62-1 85 37 85 99 1 63-27 99-86 99S16-35 15-95c0-66 28-99 85-99zM99-20c44 1 53-31 53-75 0-43-8-75-51-75s-53 32-53 75 10 74 51 75" id="ai"/><path fill="#333" d="M85-194c31 0 48 13 60 33l-1-100h32l1 261h-30c-2-10 0-23-3-31C134-8 116 4 85 4 32 4 16-35 15-94c0-66 23-100 70-100zm9 24c-40 0-46 34-46 75 0 40 6 74 45 74 42 0 51-32 51-76 0-42-9-74-50-73" id="aj"/><g id="m"><use transform="matrix(0.06172839506172839,0,0,0.06172839506172839,0,0)" xlink:href="#ah"/><use transform="matrix(0.06172839506172839,0,0,0.06172839506172839,15.987654320987653,0)" xlink:href="#ac"/><use transform="matrix(0.06172839506172839,0,0,0.06172839506172839,20.864197530864196,0)" xlink:href="#ai"/><use transform="matrix(0.06172839506172839,0,0,0.06172839506172839,33.20987654320987,0)" xlink:href="#S"/><use transform="matrix(0.06172839506172839,0,0,0.06172839506172839,45.55555555555555,0)" xlink:href="#aj"/></g><path fill="#333" d="M63-220v92h138v28H63V0H30v-248h175v28H63" id="ak"/><path fill="#333" d="M59-47c-2 24 18 29 38 22v24C64 9 27 4 27-40v-127H5v-23h24l9-43h21v43h35v23H59v120" id="al"/><g id="n"><use transform="matrix(0.06172839506172839,0,0,0.06172839506172839,0,0)" xlink:href="#ak"/><use transform="matrix(0.06172839506172839,0,0,0.06172839506172839,13.518518518518517,0)" xlink:href="#S"/><use transform="matrix(0.06172839506172839,0,0,0.06172839506172839,25.864197530864196,0)" xlink:href="#L"/><use transform="matrix(0.06172839506172839,0,0,0.06172839506172839,38.20987654320987,0)" xlink:href="#ad"/><use transform="matrix(0.06172839506172839,0,0,0.06172839506172839,49.32098765432099,0)" xlink:href="#al"/><use transform="matrix(0.06172839506172839,0,0,0.06172839506172839,55.49382716049383,0)" xlink:href="#N"/><use transform="matrix(0.06172839506172839,0,0,0.06172839506172839,60.370370370370374,0)" xlink:href="#ai"/><use transform="matrix(0.06172839506172839,0,0,0.06172839506172839,72.71604938271605,0)" xlink:href="#L"/><use transform="matrix(0.06172839506172839,0,0,0.06172839506172839,85.06172839506173,0)" xlink:href="#T"/></g><use transform="matrix(0.06172839506172839,0,0,0.06172839506172839,0,0)" xlink:href="#P" id="o"/><path fill="#333" d="M141-36C126-15 110 5 73 4 37 3 15-17 15-53c-1-64 63-63 125-63 3-35-9-54-41-54-24 1-41 7-42 31l-33-3c5-37 33-52 76-52 45 0 72 20 72 64v82c-1 20 7 32 28 27v20c-31 9-61-2-59-35zM48-53c0 20 12 33 32 33 41-3 63-29 60-74-43 2-92-5-92 41" id="am"/><path fill="#333" d="M106-169C34-169 62-67 57 0H25v-261h32l-1 103c12-21 28-36 61-36 89 0 53 116 60 194h-32v-121c2-32-8-49-39-48" id="an"/><g id="p"><use transform="matrix(0.06172839506172839,0,0,0.06172839506172839,0,0)" xlink:href="#J"/><use transform="matrix(0.06172839506172839,0,0,0.06172839506172839,12.345679012345679,0)" xlink:href="#am"/><use transform="matrix(0.06172839506172839,0,0,0.06172839506172839,24.691358024691358,0)" xlink:href="#U"/><use transform="matrix(0.06172839506172839,0,0,0.06172839506172839,32.03703703703704,0)" xlink:href="#T"/><use transform="matrix(0.06172839506172839,0,0,0.06172839506172839,43.14814814814815,0)" xlink:href="#O"/><use transform="matrix(0.06172839506172839,0,0,0.06172839506172839,55.49382716049383,0)" xlink:href="#P"/><use transform="matrix(0.06172839506172839,0,0,0.06172839506172839,62.839506172839506,0)" xlink:href="#an"/><use transform="matrix(0.06172839506172839,0,0,0.06172839506172839,75.18518518518519,0)" xlink:href="#O"/><use transform="matrix(0.06172839506172839,0,0,0.06172839506172839,87.53086419753087,0)" xlink:href="#am"/><use transform="matrix(0.06172839506172839,0,0,0.06172839506172839,99.87654320987656,0)" xlink:href="#ac"/><use transform="matrix(0.06172839506172839,0,0,0.06172839506172839,104.7530864197531,0)" xlink:href="#al"/><use transform="matrix(0.06172839506172839,0,0,0.06172839506172839,110.92592592592594,0)" xlink:href="#an"/><use transform="matrix(0.06172839506172839,0,0,0.06172839506172839,123.27160493827162,0)" xlink:href="#N"/><use transform="matrix(0.06172839506172839,0,0,0.06172839506172839,128.14814814814815,0)" xlink:href="#L"/><use transform="matrix(0.06172839506172839,0,0,0.06172839506172839,140.49382716049382,0)" xlink:href="#T"/><use transform="matrix(0.06172839506172839,0,0,0.06172839506172839,151.60493827160494,0)" xlink:href="#P"/><use transform="matrix(0.06172839506172839,0,0,0.06172839506172839,158.9506172839506,0)" xlink:href="#aj"/><use transform="matrix(0.06172839506172839,0,0,0.06172839506172839,171.29629629629628,0)" xlink:href="#am"/><use transform="matrix(0.06172839506172839,0,0,0.06172839506172839,183.64197530864195,0)" xlink:href="#al"/><use transform="matrix(0.06172839506172839,0,0,0.06172839506172839,189.81481481481478,0)" xlink:href="#am"/></g><path fill="#333" d="M25-224v-37h50v37H25zM25 0v-190h50V0H25" id="ao"/><path fill="#333" d="M195-6C206 82 75 100 31 46c-4-6-6-13-8-21l49-6c3 16 16 24 34 25 40 0 42-37 40-79-11 22-30 35-61 35-53 0-70-43-70-97 0-56 18-96 73-97 30 0 46 14 59 34l2-30h47zm-90-29c32 0 41-27 41-63 0-35-9-62-40-62-32 0-39 29-40 63 0 36 9 62 39 62" id="ap"/><g id="q"><use transform="matrix(0.04938271604938272,0,0,0.04938271604938272,0,0)" xlink:href="#aa"/><use transform="matrix(0.04938271604938272,0,0,0.04938271604938272,5.8765432098765435,0)" xlink:href="#V"/><use transform="matrix(0.04938271604938272,0,0,0.04938271604938272,12.790123456790125,0)" xlink:href="#ao"/><use transform="matrix(0.04938271604938272,0,0,0.04938271604938272,17.728395061728396,0)" xlink:href="#ap"/><use transform="matrix(0.04938271604938272,0,0,0.04938271604938272,28.543209876543205,0)" xlink:href="#ap"/><use transform="matrix(0.04938271604938272,0,0,0.04938271604938272,39.358024691358025,0)" xlink:href="#W"/><use transform="matrix(0.04938271604938272,0,0,0.04938271604938272,49.23456790123457,0)" xlink:href="#V"/></g><path fill="#333" d="M160-131c35 5 61 23 61 61C221 17 115-2 30 0v-248c76 3 177-17 177 60 0 33-19 50-47 57zm-97-11c50-1 110 9 110-42 0-47-63-36-110-37v79zm0 115c55-2 124 14 124-45 0-56-70-42-124-44v89" id="aq"/><path fill="#333" d="M140-251c81 0 123 46 123 126C263-53 228-8 163 1c7 30 30 48 69 40v23c-55 16-95-15-103-61C56-3 17-48 17-125c0-80 42-126 123-126zm0 227c63 0 89-41 89-101s-29-99-89-99c-61 0-89 39-89 99S79-25 140-24" id="ar"/><path fill="#333" d="M179-190L93 31C79 59 56 82 12 73V49c39 6 53-20 64-50L1-190h34L92-34l54-156h33" id="as"/><g id="r"><use transform="matrix(0.06172839506172839,0,0,0.06172839506172839,0,0)" xlink:href="#aq"/><use transform="matrix(0.06172839506172839,0,0,0.06172839506172839,14.814814814814813,0)" xlink:href="#N"/><use transform="matrix(0.06172839506172839,0,0,0.06172839506172839,19.691358024691354,0)" xlink:href="#M"/><use transform="matrix(0.06172839506172839,0,0,0.06172839506172839,32.03703703703703,0)" xlink:href="#ar"/><use transform="matrix(0.06172839506172839,0,0,0.06172839506172839,49.32098765432098,0)" xlink:href="#S"/><use transform="matrix(0.06172839506172839,0,0,0.06172839506172839,61.66666666666666,0)" xlink:href="#O"/><use transform="matrix(0.06172839506172839,0,0,0.06172839506172839,74.01234567901234,0)" xlink:href="#U"/><use transform="matrix(0.06172839506172839,0,0,0.06172839506172839,81.35802469135803,0)" xlink:href="#as"/></g><path fill="#333" d="M121-226c-27-7-43 5-38 36h38v33H83V0H34v-157H6v-33h28c-9-59 32-81 87-68v32" id="at"/><path fill="#333" d="M110-194c64 0 96 36 96 99 0 64-35 99-97 99-61 0-95-36-95-99 0-62 34-99 96-99zm-1 164c35 0 45-28 45-65 0-40-10-65-43-65-34 0-45 26-45 65 0 36 10 65 43 65" id="au"/><path fill="#333" d="M220-157c-53 9-28 100-34 157h-49v-107c1-27-5-49-29-50C55-147 81-57 75 0H25l-1-190h47c2 12-1 28 3 38 10-53 101-56 108 0 13-22 24-43 59-42 82 1 51 116 57 194h-49v-107c-1-25-5-48-29-50" id="av"/><g id="s"><use transform="matrix(0.04938271604938272,0,0,0.04938271604938272,0,0)" xlink:href="#at"/><use transform="matrix(0.04938271604938272,0,0,0.04938271604938272,5.8765432098765435,0)" xlink:href="#au"/><use transform="matrix(0.04938271604938272,0,0,0.04938271604938272,16.691358024691358,0)" xlink:href="#V"/><use transform="matrix(0.04938271604938272,0,0,0.04938271604938272,23.604938271604937,0)" xlink:href="#av"/><use transform="matrix(0.04938271604938272,0,0,0.04938271604938272,39.407407407407405,0)" xlink:href="#af"/><use transform="matrix(0.04938271604938272,0,0,0.04938271604938272,49.28395061728395,0)" xlink:href="#aa"/><use transform="matrix(0.04938271604938272,0,0,0.04938271604938272,55.1604938271605,0)" xlink:href="#aa"/><use transform="matrix(0.04938271604938272,0,0,0.04938271604938272,61.037037037037045,0)" xlink:href="#W"/><use transform="matrix(0.04938271604938272,0,0,0.04938271604938272,70.91358024691358,0)" xlink:href="#ae"/></g><g id="t"><use transform="matrix(0.04938271604938272,0,0,0.04938271604938272,0,0)" xlink:href="#W"/><use transform="matrix(0.04938271604938272,0,0,0.04938271604938272,9.876543209876544,0)" xlink:href="#V"/><use transform="matrix(0.04938271604938272,0,0,0.04938271604938272,16.790123456790127,0)" xlink:href="#V"/><use transform="matrix(0.04938271604938272,0,0,0.04938271604938272,23.70370370370371,0)" xlink:href="#au"/><use transform="matrix(0.04938271604938272,0,0,0.04938271604938272,34.518518518518526,0)" xlink:href="#V"/><use transform="matrix(0.04938271604938272,0,0,0.04938271604938272,41.43209876543211,0)" xlink:href="#Z"/></g><path fill="#333" d="M185-189c-5-48-123-54-124 2 14 75 158 14 163 119 3 78-121 87-175 55-17-10-28-26-33-46l33-7c5 56 141 63 141-1 0-78-155-14-162-118-5-82 145-84 179-34 5 7 8 16 11 25" id="aw"/><g id="u"><use transform="matrix(0.06172839506172839,0,0,0.06172839506172839,0,0)" xlink:href="#aw"/><use transform="matrix(0.06172839506172839,0,0,0.06172839506172839,14.814814814814813,0)" xlink:href="#al"/><use transform="matrix(0.06172839506172839,0,0,0.06172839506172839,20.98765432098765,0)" xlink:href="#ai"/><use transform="matrix(0.06172839506172839,0,0,0.06172839506172839,33.33333333333333,0)" xlink:href="#U"/><use transform="matrix(0.06172839506172839,0,0,0.06172839506172839,40.679012345679006,0)" xlink:href="#am"/><use transform="matrix(0.06172839506172839,0,0,0.06172839506172839,53.02469135802468,0)" xlink:href="#M"/><use transform="matrix(0.06172839506172839,0,0,0.06172839506172839,65.37037037037037,0)" xlink:href="#O"/></g><path fill="#333" d="M206 0h-36l-40-164L89 0H53L-1-190h32L70-26l43-164h34l41 164 42-164h31" id="ax"/><g id="v"><use transform="matrix(0.06172839506172839,0,0,0.06172839506172839,0,0)" xlink:href="#an"/><use transform="matrix(0.06172839506172839,0,0,0.06172839506172839,12.345679012345679,0)" xlink:href="#O"/><use transform="matrix(0.06172839506172839,0,0,0.06172839506172839,24.691358024691358,0)" xlink:href="#am"/><use transform="matrix(0.06172839506172839,0,0,0.06172839506172839,37.03703703703704,0)" xlink:href="#ac"/><use transform="matrix(0.06172839506172839,0,0,0.06172839506172839,41.91358024691358,0)" xlink:href="#al"/><use transform="matrix(0.06172839506172839,0,0,0.06172839506172839,48.086419753086425,0)" xlink:href="#an"/><use transform="matrix(0.06172839506172839,0,0,0.06172839506172839,60.4320987654321,0)" xlink:href="#N"/><use transform="matrix(0.06172839506172839,0,0,0.06172839506172839,65.30864197530865,0)" xlink:href="#L"/><use transform="matrix(0.06172839506172839,0,0,0.06172839506172839,77.65432098765433,0)" xlink:href="#T"/><use transform="matrix(0.06172839506172839,0,0,0.06172839506172839,88.76543209876544,0)" xlink:href="#P"/><use transform="matrix(0.06172839506172839,0,0,0.06172839506172839,96.11111111111113,0)" xlink:href="#U"/><use transform="matrix(0.06172839506172839,0,0,0.06172839506172839,103.45679012345681,0)" xlink:href="#am"/><use transform="matrix(0.06172839506172839,0,0,0.06172839506172839,115.8024691358025,0)" xlink:href="#ax"/><use transform="matrix(0.06172839506172839,0,0,0.06172839506172839,131.79012345679016,0)" xlink:href="#P"/><use transform="matrix(0.06172839506172839,0,0,0.06172839506172839,139.13580246913583,0)" xlink:href="#aj"/><use transform="matrix(0.06172839506172839,0,0,0.06172839506172839,151.4814814814815,0)" xlink:href="#am"/><use transform="matrix(0.06172839506172839,0,0,0.06172839506172839,163.82716049382717,0)" xlink:href="#al"/><use transform="matrix(0.06172839506172839,0,0,0.06172839506172839,170,0)" xlink:href="#am"/><use transform="matrix(0.06172839506172839,0,0,0.06172839506172839,182.34567901234567,0)" xlink:href="#P"/><use transform="matrix(0.06172839506172839,0,0,0.06172839506172839,189.69135802469134,0)" xlink:href="#O"/><use transform="matrix(0.06172839506172839,0,0,0.06172839506172839,202.037037037037,0)" xlink:href="#U"/><use transform="matrix(0.06172839506172839,0,0,0.06172839506172839,209.38271604938268,0)" xlink:href="#U"/><use transform="matrix(0.06172839506172839,0,0,0.06172839506172839,216.72839506172835,0)" xlink:href="#ai"/><use transform="matrix(0.06172839506172839,0,0,0.06172839506172839,229.07407407407402,0)" xlink:href="#U"/><use transform="matrix(0.06172839506172839,0,0,0.06172839506172839,236.4197530864197,0)" xlink:href="#T"/></g><path fill="#333" d="M0 4l72-265h28L28 4H0" id="ay"/><g id="w"><use transform="matrix(0.06172839506172839,0,0,0.06172839506172839,0,0)" xlink:href="#Q"/><use transform="matrix(0.06172839506172839,0,0,0.06172839506172839,14.814814814814813,0)" xlink:href="#S"/><use transform="matrix(0.06172839506172839,0,0,0.06172839506172839,27.160493827160494,0)" xlink:href="#ab"/><use transform="matrix(0.06172839506172839,0,0,0.06172839506172839,39.50617283950617,0)" xlink:href="#ay"/><use transform="matrix(0.06172839506172839,0,0,0.06172839506172839,45.67901234567901,0)" xlink:href="#aw"/><use transform="matrix(0.06172839506172839,0,0,0.06172839506172839,60.49382716049382,0)" xlink:href="#S"/><use transform="matrix(0.06172839506172839,0,0,0.06172839506172839,72.8395061728395,0)" xlink:href="#ab"/></g><g id="x"><use transform="matrix(0.06172839506172839,0,0,0.06172839506172839,0,0)" xlink:href="#an"/><use transform="matrix(0.06172839506172839,0,0,0.06172839506172839,12.345679012345679,0)" xlink:href="#O"/><use transform="matrix(0.06172839506172839,0,0,0.06172839506172839,24.691358024691358,0)" xlink:href="#am"/><use transform="matrix(0.06172839506172839,0,0,0.06172839506172839,37.03703703703704,0)" xlink:href="#ac"/><use transform="matrix(0.06172839506172839,0,0,0.06172839506172839,41.91358024691358,0)" xlink:href="#al"/><use transform="matrix(0.06172839506172839,0,0,0.06172839506172839,48.086419753086425,0)" xlink:href="#an"/><use transform="matrix(0.06172839506172839,0,0,0.06172839506172839,60.4320987654321,0)" xlink:href="#N"/><use transform="matrix(0.06172839506172839,0,0,0.06172839506172839,65.30864197530865,0)" xlink:href="#L"/><use transform="matrix(0.06172839506172839,0,0,0.06172839506172839,77.65432098765433,0)" xlink:href="#T"/><use transform="matrix(0.06172839506172839,0,0,0.06172839506172839,88.76543209876544,0)" xlink:href="#P"/><use transform="matrix(0.06172839506172839,0,0,0.06172839506172839,96.11111111111113,0)" xlink:href="#U"/><use transform="matrix(0.06172839506172839,0,0,0.06172839506172839,103.45679012345681,0)" xlink:href="#am"/><use transform="matrix(0.06172839506172839,0,0,0.06172839506172839,115.8024691358025,0)" xlink:href="#ax"/><use transform="matrix(0.06172839506172839,0,0,0.06172839506172839,131.79012345679016,0)" xlink:href="#P"/><use transform="matrix(0.06172839506172839,0,0,0.06172839506172839,139.13580246913583,0)" xlink:href="#aj"/><use transform="matrix(0.06172839506172839,0,0,0.06172839506172839,151.4814814814815,0)" xlink:href="#am"/><use transform="matrix(0.06172839506172839,0,0,0.06172839506172839,163.82716049382717,0)" xlink:href="#al"/><use transform="matrix(0.06172839506172839,0,0,0.06172839506172839,170,0)" xlink:href="#am"/></g><g id="y"><use transform="matrix(0.06172839506172839,0,0,0.06172839506172839,0,0)" xlink:href="#an"/><use transform="matrix(0.06172839506172839,0,0,0.06172839506172839,12.345679012345679,0)" xlink:href="#O"/><use transform="matrix(0.06172839506172839,0,0,0.06172839506172839,24.691358024691358,0)" xlink:href="#am"/><use transform="matrix(0.06172839506172839,0,0,0.06172839506172839,37.03703703703704,0)" xlink:href="#ac"/><use transform="matrix(0.06172839506172839,0,0,0.06172839506172839,41.91358024691358,0)" xlink:href="#al"/><use transform="matrix(0.06172839506172839,0,0,0.06172839506172839,48.086419753086425,0)" xlink:href="#an"/><use transform="matrix(0.06172839506172839,0,0,0.06172839506172839,60.4320987654321,0)" xlink:href="#N"/><use transform="matrix(0.06172839506172839,0,0,0.06172839506172839,65.30864197530865,0)" xlink:href="#L"/><use transform="matrix(0.06172839506172839,0,0,0.06172839506172839,77.65432098765433,0)" xlink:href="#T"/><use transform="matrix(0.06172839506172839,0,0,0.06172839506172839,88.76543209876544,0)" xlink:href="#P"/><use transform="matrix(0.06172839506172839,0,0,0.06172839506172839,96.11111111111113,0)" xlink:href="#J"/><use transform="matrix(0.06172839506172839,0,0,0.06172839506172839,108.45679012345681,0)" xlink:href="#am"/><use transform="matrix(0.06172839506172839,0,0,0.06172839506172839,120.8024691358025,0)" xlink:href="#U"/><use transform="matrix(0.06172839506172839,0,0,0.06172839506172839,128.14814814814818,0)" xlink:href="#T"/><use transform="matrix(0.06172839506172839,0,0,0.06172839506172839,139.2592592592593,0)" xlink:href="#O"/><use transform="matrix(0.06172839506172839,0,0,0.06172839506172839,151.60493827160496,0)" xlink:href="#aj"/><use transform="matrix(0.06172839506172839,0,0,0.06172839506172839,163.95061728395063,0)" xlink:href="#P"/><use transform="matrix(0.06172839506172839,0,0,0.06172839506172839,171.2962962962963,0)" xlink:href="#aj"/><use transform="matrix(0.06172839506172839,0,0,0.06172839506172839,183.64197530864197,0)" xlink:href="#am"/><use transform="matrix(0.06172839506172839,0,0,0.06172839506172839,195.98765432098764,0)" xlink:href="#al"/><use transform="matrix(0.06172839506172839,0,0,0.06172839506172839,202.16049382716048,0)" xlink:href="#am"/></g><g id="z"><use transform="matrix(0.04938271604938272,0,0,0.04938271604938272,0,0)" xlink:href="#V"/><use transform="matrix(0.04938271604938272,0,0,0.04938271604938272,6.913580246913581,0)" xlink:href="#W"/><use transform="matrix(0.04938271604938272,0,0,0.04938271604938272,16.790123456790127,0)" xlink:href="#af"/><use transform="matrix(0.04938271604938272,0,0,0.04938271604938272,26.666666666666668,0)" xlink:href="#ae"/></g><path fill="#333" d="M27 0v-27h64v-190l-56 39v-29l58-41h29v221h61V0H27" id="az"/><use transform="matrix(0.06172839506172839,0,0,0.06172839506172839,0,0)" xlink:href="#az" id="A"/><path fill="#333" d="M101-251c82-7 93 87 43 132L82-64C71-53 59-42 53-27h129V0H18c2-99 128-94 128-182 0-28-16-43-45-43s-46 15-49 41l-32-3c6-41 34-60 81-64" id="aA"/><use transform="matrix(0.06172839506172839,0,0,0.06172839506172839,0,0)" xlink:href="#aA" id="B"/><path fill="#333" d="M126-127c33 6 58 20 58 59 0 88-139 92-164 29-3-8-5-16-6-25l32-3c6 27 21 44 54 44 32 0 52-15 52-46 0-38-36-46-79-43v-28c39 1 72-4 72-42 0-27-17-43-46-43-28 0-47 15-49 41l-32-3c6-42 35-63 81-64 48-1 79 21 79 65 0 36-21 52-52 59" id="aB"/><use transform="matrix(0.06172839506172839,0,0,0.06172839506172839,0,0)" xlink:href="#aB" id="C"/><path fill="#333" d="M155-56V0h-30v-56H8v-25l114-167h33v167h35v25h-35zm-30-156c-27 46-58 90-88 131h88v-131" id="aC"/><use transform="matrix(0.06172839506172839,0,0,0.06172839506172839,0,0)" xlink:href="#aC" id="D"/><path fill="#333" d="M54-142c48-35 137-8 131 61C196 18 31 33 14-55l32-4c7 23 22 37 52 37 35-1 51-22 54-58 4-55-73-65-99-34H22l8-134h141v27H59" id="aD"/><use transform="matrix(0.06172839506172839,0,0,0.06172839506172839,0,0)" xlink:href="#aD" id="E"/><path fill="#333" d="M110-160c48 1 74 30 74 79 0 53-28 85-80 85-65 0-83-55-86-122-5-90 50-162 133-122 14 7 22 21 27 39l-31 6c-5-40-67-38-82-6-9 19-15 44-15 74 11-20 30-34 60-33zm-7 138c34 0 49-23 49-58s-16-56-50-56c-29 0-50 16-49 49 1 36 15 65 50 65" id="aE"/><use transform="matrix(0.06172839506172839,0,0,0.06172839506172839,0,0)" xlink:href="#aE" id="F"/><path fill="#333" d="M64 0c3-98 48-159 88-221H18v-27h164v26C143-157 98-101 97 0H64" id="aF"/><use transform="matrix(0.06172839506172839,0,0,0.06172839506172839,0,0)" xlink:href="#aF" id="G"/><path fill="#333" d="M134-131c28 9 52 24 51 62-1 50-34 73-85 73S17-19 16-69c0-36 21-54 49-61-75-25-45-126 34-121 46 3 78 18 79 63 0 33-17 51-44 57zm-34-11c31 1 46-15 46-44 0-28-17-43-47-42-29 0-46 13-45 42 1 28 16 44 46 44zm1 122c35 0 51-18 51-52 0-30-18-46-53-46-33 0-51 17-51 47 0 34 19 51 53 51" id="aG"/><use transform="matrix(0.06172839506172839,0,0,0.06172839506172839,0,0)" xlink:href="#aG" id="H"/></defs></g></svg>